<svg width="31" height="31" viewBox="0 0 31 31" fill="none" xmlns="http://www.w3.org/2000/svg">
<path d="M12.5104 23.8904C12.2766 23.8904 12.0429 23.8043 11.8583 23.6197L4.39063 16.152C4.03385 15.7953 4.03385 15.2047 4.39063 14.848L11.8583 7.38025C12.2151 7.02348 12.8056 7.02348 13.1624 7.38025C13.5192 7.73703 13.5192 8.32756 13.1624 8.68433L6.34675 15.5L13.1624 22.3156C13.5192 22.6724 13.5192 23.263 13.1624 23.6197C12.9902 23.8043 12.7441 23.8904 12.5104 23.8904Z" fill="#292D32"/>
<path d="M25.9571 16.4227H5.2518C4.74739 16.4227 4.3291 16.0044 4.3291 15.5C4.3291 14.9956 4.74739 14.5773 5.2518 14.5773H25.9571C26.4615 14.5773 26.8798 14.9956 26.8798 15.5C26.8798 16.0044 26.4615 16.4227 25.9571 16.4227Z" fill="#292D32"/>
</svg>
