<svg width="16" height="16" viewBox="0 0 16 16" fill="none" xmlns="http://www.w3.org/2000/svg">
<path d="M7.38465 1.84607H6.15388C3.07696 1.84607 1.84619 3.07684 1.84619 6.15376V9.84607C1.84619 12.923 3.07696 14.1538 6.15388 14.1538H9.84619C12.9231 14.1538 14.1539 12.923 14.1539 9.84607V8.6153" stroke="#D0934D" stroke-width="1.5" stroke-linecap="round" stroke-linejoin="round"/>
<path d="M10.4861 2.47382L5.63685 7.32305C5.45223 7.50767 5.26762 7.87075 5.23069 8.13536L4.96608 9.98767C4.86762 10.6584 5.34146 11.1261 6.01223 11.0338L7.86454 10.7692C8.123 10.7323 8.48608 10.5477 8.67685 10.3631L13.5261 5.51382C14.363 4.6769 14.7568 3.70459 13.5261 2.47382C12.2953 1.24305 11.323 1.6369 10.4861 2.47382Z" stroke="#D0934D" stroke-width="1.5" stroke-miterlimit="10" stroke-linecap="round" stroke-linejoin="round"/>
<path d="M9.79053 3.16919C10.2028 4.63996 11.3536 5.79073 12.8305 6.20919" stroke="#D0934D" stroke-width="1.5" stroke-miterlimit="10" stroke-linecap="round" stroke-linejoin="round"/>
</svg>
