<svg width="56" height="56" viewBox="0 0 56 56" fill="none" xmlns="http://www.w3.org/2000/svg">
<path d="M21.0002 23.3333C23.5775 23.3333 25.6668 21.244 25.6668 18.6667C25.6668 16.0893 23.5775 14 21.0002 14C18.4228 14 16.3335 16.0893 16.3335 18.6667C16.3335 21.244 18.4228 23.3333 21.0002 23.3333Z" stroke="#D9D9D9" stroke-width="3" stroke-linecap="round" stroke-linejoin="round"/>
<path d="M30.3332 4.66675H20.9998C9.33317 4.66675 4.6665 9.33342 4.6665 21.0001V35.0001C4.6665 46.6668 9.33317 51.3334 20.9998 51.3334H34.9998C46.6665 51.3334 51.3332 46.6668 51.3332 35.0001V23.3334" stroke="#D9D9D9" stroke-width="3" stroke-linecap="round" stroke-linejoin="round"/>
<path d="M36.75 11.6667H49.5833" stroke="#D9D9D9" stroke-width="3" stroke-linecap="round"/>
<path d="M43.1665 18.0833V5.25" stroke="#D9D9D9" stroke-width="3" stroke-linecap="round"/>
<path d="M6.22998 44.2166L17.7333 36.4933C19.5766 35.2566 22.2366 35.3966 23.8933 36.82L24.6633 37.4966C26.4833 39.06 29.4233 39.06 31.2433 37.4966L40.95 29.1666C42.77 27.6033 45.71 27.6033 47.53 29.1666L51.3333 32.4333" stroke="#D9D9D9" stroke-width="3" stroke-linecap="round" stroke-linejoin="round"/>
</svg>
