<svg width="23" height="23" viewBox="0 0 23 23" fill="none" xmlns="http://www.w3.org/2000/svg">
<path d="M17.9357 8.6501C17.9357 9.98497 17.5398 11.2094 16.8586 12.2312C15.8644 13.7042 14.2901 14.7444 12.4582 15.0114C12.1452 15.0667 11.8229 15.0943 11.4915 15.0943C11.1601 15.0943 10.8379 15.0667 10.5249 15.0114C8.69292 14.7444 7.1187 13.7042 6.12446 12.2312C5.44322 11.2094 5.04736 9.98497 5.04736 8.6501C5.04736 5.0874 7.92883 2.20593 11.4915 2.20593C15.0542 2.20593 17.9357 5.0874 17.9357 8.6501Z" stroke="#D0934D" stroke-linecap="round" stroke-linejoin="round"/>
<path d="M20.007 17.3681L18.488 17.7272C18.1474 17.81 17.8804 18.0678 17.8068 18.4084L17.4846 19.7617C17.3097 20.4982 16.3707 20.7191 15.8828 20.1391L11.4915 15.0943L7.10027 20.1483C6.61235 20.7283 5.67334 20.5074 5.49843 19.7709L5.17622 18.4176C5.09337 18.077 4.8264 17.81 4.49498 17.7364L2.976 17.3774C2.27635 17.2116 2.02779 16.3371 2.53411 15.8307L6.12444 12.2404C7.11868 13.7134 8.6929 14.7537 10.5249 15.0206C10.8379 15.0759 11.1601 15.1035 11.4915 15.1035C11.8229 15.1035 12.1451 15.0759 12.4581 15.0206C14.2901 14.7537 15.8643 13.7134 16.8586 12.2404L20.4489 15.8307C20.9552 16.3279 20.7067 17.2024 20.007 17.3681Z" stroke="#D0934D" stroke-linecap="round" stroke-linejoin="round"/>
<path d="M12.0256 5.86993L12.5688 6.95622C12.6424 7.10352 12.8357 7.25082 13.0107 7.27844L13.9957 7.44414C14.6217 7.5454 14.769 8.0057 14.3179 8.4568L13.5538 9.22088C13.4249 9.34976 13.3513 9.59834 13.3973 9.78246L13.6183 10.7307C13.7932 11.4764 13.3973 11.7709 12.7345 11.3751L11.8139 10.8319C11.6482 10.7307 11.372 10.7307 11.2063 10.8319L10.2857 11.3751C9.62287 11.7617 9.22701 11.4764 9.40192 10.7307L9.62287 9.78246C9.65969 9.60754 9.59525 9.34976 9.46637 9.22088L8.70227 8.4568C8.25118 8.0057 8.39847 7.55461 9.02448 7.44414L10.0095 7.27844C10.1752 7.25082 10.3685 7.10352 10.4422 6.95622L10.9853 5.86993C11.2523 5.28074 11.731 5.28074 12.0256 5.86993Z" stroke="#D0934D" stroke-linecap="round" stroke-linejoin="round"/>
</svg>
