<svg width="30" height="30" viewBox="0 0 30 30" fill="none" xmlns="http://www.w3.org/2000/svg">
<g clip-path="url(#clip0_1_2775)">
<path d="M23.75 3.7775C23.75 3.7675 23.75 3.76 23.75 3.75V1.25C23.75 0.918479 23.6183 0.600537 23.3839 0.366117C23.1495 0.131696 22.8315 0 22.5 0C22.1685 0 21.8505 0.131696 21.6161 0.366117C21.3817 0.600537 21.25 0.918479 21.25 1.25V2.625C20.8386 2.54146 20.4198 2.49958 20 2.5H18.75V1.25C18.75 0.918479 18.6183 0.600537 18.3839 0.366117C18.1495 0.131696 17.8315 0 17.5 0C17.1685 0 16.8505 0.131696 16.6161 0.366117C16.3817 0.600537 16.25 0.918479 16.25 1.25V2.5H13.75V1.25C13.75 0.918479 13.6183 0.600537 13.3839 0.366117C13.1495 0.131696 12.8315 0 12.5 0C12.1685 0 11.8505 0.131696 11.6161 0.366117C11.3817 0.600537 11.25 0.918479 11.25 1.25V2.5H10C9.58019 2.49958 9.16141 2.54146 8.75 2.625V1.25C8.75 0.918479 8.6183 0.600537 8.38388 0.366117C8.14946 0.131696 7.83152 0 7.5 0C7.16848 0 6.85054 0.131696 6.61612 0.366117C6.3817 0.600537 6.25 0.918479 6.25 1.25V3.75V3.7775C5.47598 4.35547 4.84712 5.10567 4.41321 5.96873C3.97929 6.83179 3.75223 7.784 3.75 8.75V23.75C3.75198 25.407 4.4111 26.9956 5.58277 28.1672C6.75445 29.3389 8.34301 29.998 10 30H20C21.657 29.998 23.2456 29.3389 24.4172 28.1672C25.5889 26.9956 26.248 25.407 26.25 23.75V8.75C26.2478 7.784 26.0207 6.83179 25.5868 5.96873C25.1529 5.10567 24.524 4.35547 23.75 3.7775ZM23.75 23.75C23.75 24.7446 23.3549 25.6984 22.6517 26.4017C21.9484 27.1049 20.9946 27.5 20 27.5H10C9.00544 27.5 8.05161 27.1049 7.34835 26.4017C6.64509 25.6984 6.25 24.7446 6.25 23.75V8.75C6.25 7.75544 6.64509 6.80161 7.34835 6.09835C8.05161 5.39509 9.00544 5 10 5H20C20.9946 5 21.9484 5.39509 22.6517 6.09835C23.3549 6.80161 23.75 7.75544 23.75 8.75V23.75ZM21.25 10C21.25 10.3315 21.1183 10.6495 20.8839 10.8839C20.6495 11.1183 20.3315 11.25 20 11.25H10C9.66848 11.25 9.35054 11.1183 9.11612 10.8839C8.8817 10.6495 8.75 10.3315 8.75 10C8.75 9.66848 8.8817 9.35054 9.11612 9.11612C9.35054 8.8817 9.66848 8.75 10 8.75H20C20.3315 8.75 20.6495 8.8817 20.8839 9.11612C21.1183 9.35054 21.25 9.66848 21.25 10ZM21.25 15C21.25 15.3315 21.1183 15.6495 20.8839 15.8839C20.6495 16.1183 20.3315 16.25 20 16.25H10C9.66848 16.25 9.35054 16.1183 9.11612 15.8839C8.8817 15.6495 8.75 15.3315 8.75 15C8.75 14.6685 8.8817 14.3505 9.11612 14.1161C9.35054 13.8817 9.66848 13.75 10 13.75H20C20.3315 13.75 20.6495 13.8817 20.8839 14.1161C21.1183 14.3505 21.25 14.6685 21.25 15ZM16.25 20C16.25 20.3315 16.1183 20.6495 15.8839 20.8839C15.6495 21.1183 15.3315 21.25 15 21.25H10C9.66848 21.25 9.35054 21.1183 9.11612 20.8839C8.8817 20.6495 8.75 20.3315 8.75 20C8.75 19.6685 8.8817 19.3505 9.11612 19.1161C9.35054 18.8817 9.66848 18.75 10 18.75H15C15.3315 18.75 15.6495 18.8817 15.8839 19.1161C16.1183 19.3505 16.25 19.6685 16.25 20Z" fill="#727272"/>
</g>
<defs>
<clipPath id="clip0_1_2775">
<rect width="30" height="30" fill="white"/>
</clipPath>
</defs>
</svg>
