<svg width="25" height="25" viewBox="0 0 25 25" fill="none" xmlns="http://www.w3.org/2000/svg">
<path d="M12.4688 21.25C12.7604 21.25 13.0158 21.1408 13.235 20.9225C13.4533 20.7033 13.5625 20.4479 13.5625 20.1562V19.6875C14.6042 19.5 15.5 19.0938 16.25 18.4688C17 17.8438 17.375 16.9167 17.375 15.6875C17.375 14.8125 17.125 14.0104 16.625 13.2812C16.125 12.5521 15.125 11.9167 13.625 11.375C12.375 10.9583 11.5104 10.5938 11.0312 10.2812C10.5521 9.96875 10.3125 9.54167 10.3125 9C10.3125 8.45833 10.5054 8.03125 10.8913 7.71875C11.2763 7.40625 11.8333 7.25 12.5625 7.25C12.9792 7.25 13.3438 7.32292 13.6562 7.46875C13.9688 7.61458 14.2292 7.8125 14.4375 8.0625C14.6458 8.3125 14.8804 8.48458 15.1412 8.57875C15.4012 8.67208 15.6458 8.66667 15.875 8.5625C16.1875 8.4375 16.4013 8.22375 16.5163 7.92125C16.6304 7.61958 16.6042 7.34375 16.4375 7.09375C16.1042 6.61458 15.6929 6.20833 15.2038 5.875C14.7137 5.54167 14.1875 5.35417 13.625 5.3125V4.84375C13.625 4.55208 13.5154 4.29667 13.2963 4.0775C13.0779 3.85917 12.8229 3.75 12.5312 3.75C12.2396 3.75 11.9846 3.85917 11.7663 4.0775C11.5471 4.29667 11.4375 4.55208 11.4375 4.84375V5.3125C10.3958 5.54167 9.58333 6 9 6.6875C8.41667 7.375 8.125 8.14583 8.125 9C8.125 9.97917 8.41167 10.7708 8.985 11.375C9.5575 11.9792 10.4583 12.5 11.6875 12.9375C13 13.4167 13.9117 13.8438 14.4225 14.2188C14.9325 14.5938 15.1875 15.0833 15.1875 15.6875C15.1875 16.375 14.9425 16.88 14.4525 17.2025C13.9633 17.5258 13.375 17.6875 12.6875 17.6875C12.1458 17.6875 11.6562 17.5571 11.2188 17.2962C10.7813 17.0362 10.4167 16.6458 10.125 16.125C9.95833 15.8333 9.73958 15.6354 9.46875 15.5312C9.19792 15.4271 8.92708 15.4271 8.65625 15.5312C8.36458 15.6354 8.15125 15.8333 8.01625 16.125C7.88042 16.4167 7.875 16.6979 8 16.9688C8.33333 17.6771 8.78125 18.255 9.34375 18.7025C9.90625 19.1508 10.5833 19.4583 11.375 19.625V20.1562C11.375 20.4479 11.4846 20.7033 11.7037 20.9225C11.9221 21.1408 12.1771 21.25 12.4688 21.25ZM12.5 25C10.7708 25 9.14583 24.6717 7.625 24.015C6.10417 23.3592 4.78125 22.4688 3.65625 21.3438C2.53125 20.2188 1.64083 18.8958 0.985 17.375C0.328333 15.8542 0 14.2292 0 12.5C0 10.7708 0.328333 9.14583 0.985 7.625C1.64083 6.10417 2.53125 4.78125 3.65625 3.65625C4.78125 2.53125 6.10417 1.64042 7.625 0.98375C9.14583 0.327917 10.7708 0 12.5 0C14.2292 0 15.8542 0.327917 17.375 0.98375C18.8958 1.64042 20.2188 2.53125 21.3438 3.65625C22.4688 4.78125 23.3592 6.10417 24.015 7.625C24.6717 9.14583 25 10.7708 25 12.5C25 14.2292 24.6717 15.8542 24.015 17.375C23.3592 18.8958 22.4688 20.2188 21.3438 21.3438C20.2188 22.4688 18.8958 23.3592 17.375 24.015C15.8542 24.6717 14.2292 25 12.5 25Z" fill="#34A853"/>
</svg>
