<svg width="25" height="25" viewBox="0 0 25 25" fill="none" xmlns="http://www.w3.org/2000/svg">
<g clip-path="url(#clip0_1_5591)">
<path d="M11.1104 24.074C10.85 23.7823 10.5542 23.451 10.3292 23.4073C9.96555 23.4227 9.61286 23.5361 9.30833 23.7354L9.31563 23.7302C8.94794 23.9464 8.5379 24.0807 8.11354 24.124L8.10104 24.125H8.09063C7.95942 24.1251 7.8295 24.0993 7.70833 24.049L7.71458 24.051C7.20313 23.8385 6.99583 23.2469 6.79792 22.674C6.71855 22.329 6.55501 22.0091 6.32188 21.7427L6.32396 21.7448C6.14382 21.6573 5.94314 21.6209 5.74375 21.6396H5.74792C5.59583 21.6396 5.43542 21.649 5.275 21.6583C5.10208 21.6687 4.92917 21.6771 4.76458 21.6771C4.56694 21.6957 4.36756 21.6751 4.1779 21.6165C3.98823 21.5579 3.81202 21.4623 3.65938 21.3354L3.66146 21.3375C3.49757 21.1038 3.3846 20.8383 3.32987 20.5582C3.27514 20.2781 3.27987 19.9896 3.34375 19.7115L3.34167 19.725C3.4027 19.3688 3.3726 19.0029 3.25417 18.6615L3.25833 18.6771C2.99679 18.4472 2.6827 18.2851 2.34375 18.2052L2.32917 18.2021C1.75625 18.0031 1.1625 17.7969 0.952083 17.2854C0.891722 17.0096 0.88954 16.7241 0.945679 16.4474C1.00182 16.1707 1.11504 15.9087 1.27813 15.6781L1.27396 15.6844C1.46427 15.3789 1.57427 15.0302 1.59375 14.6708V14.6656C1.55 14.4396 1.21875 14.1448 0.927083 13.8844C0.470833 13.4802 0 13.0604 0 12.499C0 11.9375 0.470833 11.5177 0.926042 11.1104C1.21771 10.85 1.54896 10.5542 1.59271 10.3292C1.57157 9.96626 1.45867 9.61466 1.26458 9.30729L1.26979 9.31562C1.10716 9.08334 0.994891 8.81962 0.940179 8.54139C0.885466 8.26316 0.889521 7.97657 0.952083 7.7L0.95 7.71354C1.1625 7.20208 1.75417 6.99479 2.32708 6.79688C2.6875 6.7125 3.00104 6.54687 3.25833 6.31979L3.25625 6.32187C3.37369 5.98083 3.40166 5.61536 3.3375 5.26042L3.33958 5.27292C3.27819 4.99529 3.2752 4.70793 3.33079 4.42908C3.38638 4.15023 3.49934 3.88599 3.6625 3.65312L3.65833 3.65937C3.81177 3.53294 3.98866 3.43805 4.17885 3.38013C4.36905 3.32221 4.5688 3.30242 4.76667 3.32187H4.76042C4.92708 3.32187 5.09896 3.33125 5.27083 3.34062C5.43125 3.35 5.59167 3.35937 5.74375 3.35937C5.94402 3.37772 6.14547 3.3406 6.32604 3.25208L6.31979 3.25521C6.54375 2.99896 6.70938 2.68646 6.79063 2.34062L6.79375 2.32604C6.99375 1.75312 7.2 1.15937 7.71042 0.948958C7.82972 0.900054 7.95753 0.875271 8.08646 0.876042H8.09792H8.09688C8.55104 0.922917 8.96354 1.06354 9.32708 1.27812L9.3125 1.27083C9.61324 1.46859 9.96222 1.5806 10.3219 1.59479H10.326C10.5521 1.55104 10.8469 1.21979 11.1073 0.928125C11.5177 0.470833 11.9385 0 12.5 0C13.0615 0 13.4813 0.470833 13.8885 0.927083C14.149 1.21875 14.4448 1.55 14.6698 1.59375C15.0333 1.57697 15.3858 1.46332 15.6906 1.26458L15.6823 1.26979C16.0503 1.0536 16.4607 0.919633 16.8854 0.877083L16.8979 0.876042H16.9083C17.0438 0.876042 17.1729 0.903125 17.2906 0.952083L17.2844 0.95C17.7958 1.1625 18.0031 1.75417 18.201 2.32708C18.2854 2.6875 18.451 3 18.6771 3.25833L18.675 3.25625C18.8555 3.34361 19.0567 3.3793 19.2563 3.35937H19.2521C19.4042 3.35937 19.5646 3.35 19.725 3.34167C19.8979 3.33229 20.0708 3.32292 20.2354 3.32292C20.4332 3.30443 20.6327 3.32508 20.8225 3.38371C21.0123 3.44233 21.1887 3.53777 21.3417 3.66458L21.3396 3.6625C21.5029 3.89642 21.6155 4.16195 21.6701 4.442C21.7246 4.72205 21.7199 5.01042 21.6563 5.28854L21.6583 5.275C21.5971 5.63128 21.6276 5.99728 21.7469 6.33854L21.7427 6.32396C21.9979 6.54896 22.3115 6.71458 22.6573 6.79479L22.6719 6.79792C23.2448 6.99792 23.8385 7.20417 24.049 7.71458C24.1087 7.99041 24.1107 8.27563 24.0547 8.55225C23.9988 8.82888 23.8862 9.09093 23.724 9.32187L23.7281 9.31562C23.5373 9.6188 23.4262 9.9653 23.4052 10.3229V10.3292C23.449 10.5552 23.7802 10.85 24.0719 11.1104C24.5313 11.5198 25.0021 11.9396 25.0021 12.501C25.0021 13.0625 24.5313 13.4833 24.075 13.8906C23.7833 14.151 23.4521 14.4458 23.4083 14.6719C23.4313 15.05 23.549 15.3969 23.7365 15.6948L23.7313 15.6854C23.8939 15.9175 24.0062 16.181 24.0609 16.4591C24.1156 16.7372 24.1116 17.0236 24.049 17.3L24.051 17.2865C23.8396 17.799 23.2469 18.0052 22.674 18.2031C22.3288 18.2825 22.0088 18.4464 21.7427 18.6802L21.7448 18.6781C21.6274 19.0192 21.5994 19.3846 21.6635 19.7396L21.6615 19.7271C21.7227 20.0046 21.7256 20.2917 21.67 20.5704C21.6144 20.849 21.5016 21.1131 21.3385 21.3458L21.3427 21.3396C21.1896 21.4663 21.0129 21.5615 20.8229 21.6197C20.6329 21.678 20.4333 21.6982 20.2354 21.6792H20.2417C20.075 21.6792 19.9031 21.6698 19.7313 21.6604C19.5738 21.6497 19.4161 21.6434 19.2583 21.6417C19.0581 21.6229 18.8565 21.6601 18.676 21.749L18.6823 21.7458C18.4531 22.0077 18.2914 22.3217 18.2115 22.6604L18.2083 22.675C18.0083 23.2479 17.8021 23.8417 17.2917 24.0521C17.1724 24.101 17.0446 24.1258 16.9156 24.125H16.9042H16.9052C16.471 24.0817 16.0515 23.9441 15.676 23.7219L15.6896 23.7292C15.389 23.5313 15.0399 23.4196 14.6802 23.4062H14.676C14.45 23.45 14.1552 23.7812 13.8948 24.0729C13.4833 24.5292 13.0635 25 12.501 25C11.9385 25 11.5198 24.5292 11.1115 24.074H11.1104ZM14.7896 7.61354L9.70625 16.851C9.69179 16.8773 9.68442 16.9069 9.68486 16.9369C9.68531 16.967 9.69356 16.9963 9.7088 17.0222C9.72404 17.048 9.74574 17.0695 9.77178 17.0844C9.79781 17.0993 9.82728 17.1072 9.85729 17.1073H10.7396C10.7702 17.1073 10.8003 17.0992 10.8267 17.0836C10.8531 17.068 10.8748 17.0456 10.8896 17.0187V17.0177L15.9656 7.77917C15.9801 7.75287 15.9875 7.72327 15.987 7.69326C15.9866 7.66325 15.9783 7.63388 15.9631 7.60803C15.9478 7.58218 15.9261 7.56073 15.9001 7.54581C15.8741 7.53089 15.8446 7.523 15.8146 7.52292H14.9406C14.9097 7.523 14.8794 7.53135 14.8529 7.54711C14.8263 7.56286 14.8045 7.58544 14.7896 7.6125V7.61354ZM14.0563 12.3521C13.9239 12.4615 13.8173 12.5988 13.7442 12.7542C13.6711 12.9097 13.6332 13.0793 13.6333 13.251V15.7521C13.6333 16.1104 13.7979 16.4302 14.0552 16.6406L14.0573 16.6427C14.324 16.8656 14.6698 17 15.0479 17C15.426 17 15.7719 16.8646 16.0406 16.6406L16.0385 16.6427C16.299 16.4312 16.4635 16.1115 16.4635 15.7531V13.2531C16.4635 12.8948 16.3021 12.5729 16.049 12.3583L16.0469 12.3573C15.7829 12.1201 15.4403 11.9891 15.0854 11.9896H15.0531H15.0552H15.0229C14.667 11.9891 14.3232 12.1187 14.0563 12.3542L14.0583 12.3531L14.0563 12.3521ZM9.63542 7.86562C9.50305 7.97506 9.3965 8.11239 9.32339 8.26779C9.25028 8.4232 9.21241 8.59284 9.2125 8.76458V11.2646C9.2125 11.624 9.37604 11.9458 9.63438 12.1573L9.63646 12.1594C9.90313 12.3854 10.25 12.5219 10.6292 12.5219C11.0083 12.5219 11.3563 12.3844 11.624 12.1573L11.6219 12.1594C11.8844 11.9458 12.05 11.624 12.05 11.2625V8.76875C12.05 8.40729 11.8865 8.08542 11.6281 7.87083L11.626 7.86979C11.3479 7.63286 10.9944 7.50283 10.629 7.50302C10.2636 7.50321 9.91021 7.63362 9.63229 7.87083L9.63438 7.86875L9.63542 7.86562ZM14.8208 15.8875C14.7984 15.8697 14.7803 15.847 14.7679 15.8212C14.7555 15.7954 14.749 15.7672 14.749 15.7385V13.2375C14.749 13.1771 14.7771 13.124 14.8198 13.0896C14.8739 13.0427 14.943 13.0168 15.0146 13.0167H15.0281H15.0271H15.0396C15.1113 13.0166 15.1807 13.0421 15.2354 13.0885C15.2577 13.1063 15.2757 13.1288 15.2881 13.1544C15.3006 13.1799 15.3071 13.208 15.3073 13.2365V15.7385C15.3073 15.7669 15.301 15.795 15.2887 15.8206C15.2764 15.8462 15.2586 15.8687 15.2365 15.8865C15.1802 15.9323 15.1073 15.9594 15.0281 15.9594C14.949 15.9594 14.876 15.9323 14.8188 15.8854H14.8198L14.8208 15.8875ZM10.4042 11.4021C10.3819 11.3841 10.3639 11.3615 10.3514 11.3357C10.339 11.3099 10.3325 11.2817 10.3323 11.2531V8.75312C10.3323 8.69271 10.3604 8.63958 10.4031 8.60417C10.4594 8.55833 10.5323 8.53125 10.6115 8.53125C10.6906 8.53125 10.7635 8.55833 10.8208 8.60521H10.8198C10.8422 8.62304 10.8603 8.6457 10.8727 8.67149C10.8852 8.69727 10.8916 8.72553 10.8917 8.75417V11.2552C10.8916 11.2837 10.8852 11.3119 10.873 11.3376C10.8607 11.3634 10.8429 11.3861 10.8208 11.4042C10.7646 11.45 10.6917 11.4771 10.6125 11.4771C10.5333 11.4771 10.4604 11.45 10.4031 11.4031H10.4042V11.4021Z" fill="#D0934D"/>
</g>
<defs>
<clipPath id="clip0_1_5591">
<rect width="25" height="25" fill="white"/>
</clipPath>
</defs>
</svg>
