<svg width="25" height="25" viewBox="0 0 25 25" fill="none" xmlns="http://www.w3.org/2000/svg">
<path d="M12.5 0C15.8152 0 18.9946 1.31696 21.3388 3.66116C23.683 6.00537 25 9.18479 25 12.5C25 15.8152 23.683 18.9946 21.3388 21.3388C18.9946 23.683 15.8152 25 12.5 25C9.18479 25 6.00537 23.683 3.66116 21.3388C1.31696 18.9946 0 15.8152 0 12.5C0 9.18479 1.31696 6.00537 3.66116 3.66116C6.00537 1.31696 9.18479 0 12.5 0ZM12.5 5.35714C12.2733 5.35695 12.049 5.40404 11.8415 5.49541C11.634 5.58678 11.4479 5.72042 11.295 5.8878C11.1421 6.05517 11.0257 6.2526 10.9534 6.46747C10.8811 6.68235 10.8544 6.90994 10.875 7.13571L11.5268 14.2893C11.5521 14.5298 11.6655 14.7524 11.8452 14.9142C12.0249 15.0761 12.2582 15.1656 12.5 15.1656C12.7418 15.1656 12.9751 15.0761 13.1548 14.9142C13.3345 14.7524 13.4479 14.5298 13.4732 14.2893L14.1232 7.13571C14.1438 6.91009 14.1172 6.68265 14.0449 6.4679C13.9727 6.25315 13.8566 6.0558 13.7038 5.88846C13.5511 5.72111 13.3652 5.58743 13.1579 5.49595C12.9506 5.40447 12.7266 5.3572 12.5 5.35714ZM12.5 19.6429C12.8789 19.6429 13.2422 19.4923 13.5102 19.2244C13.7781 18.9565 13.9286 18.5932 13.9286 18.2143C13.9286 17.8354 13.7781 17.472 13.5102 17.2041C13.2422 16.9362 12.8789 16.7857 12.5 16.7857C12.1211 16.7857 11.7578 16.9362 11.4898 17.2041C11.2219 17.472 11.0714 17.8354 11.0714 18.2143C11.0714 18.5932 11.2219 18.9565 11.4898 19.2244C11.7578 19.4923 12.1211 19.6429 12.5 19.6429Z" fill="#EB4335"/>
</svg>
