<svg width="69" height="16" viewBox="0 0 69 16" fill="none" xmlns="http://www.w3.org/2000/svg">
<path d="M6.62211 2.92705C6.92147 2.00574 8.22488 2.00574 8.52423 2.92705L9.04894 4.54195C9.18281 4.95397 9.56677 5.23293 10 5.23293H11.698C12.6667 5.23293 13.0695 6.47255 12.2858 7.04195L10.9121 8.04001C10.5616 8.29465 10.4149 8.74602 10.5488 9.15804L11.0735 10.7729C11.3729 11.6943 10.3184 12.4604 9.53467 11.891L8.16096 10.8929C7.81047 10.6383 7.33587 10.6383 6.98539 10.8929L5.61167 11.891C4.82796 12.4604 3.77348 11.6943 4.07283 10.7729L4.59754 9.15805C4.73142 8.74602 4.58476 8.29465 4.23427 8.04001L2.86056 7.04195C2.07684 6.47255 2.47962 5.23293 3.44834 5.23293H5.14634C5.57957 5.23293 5.96353 4.95397 6.0974 4.54195L6.62211 2.92705Z" fill="#FCC44E"/>
<path d="M20.0855 2.92705C20.3848 2.00574 21.6883 2.00574 21.9876 2.92705L22.5123 4.54195C22.6462 4.95397 23.0301 5.23293 23.4634 5.23293H25.1614C26.1301 5.23293 26.5329 6.47255 25.7492 7.04195L24.3755 8.04001C24.025 8.29465 23.8783 8.74602 24.0122 9.15804L24.5369 10.7729C24.8362 11.6943 23.7818 12.4604 22.998 11.891L21.6243 10.8929C21.2738 10.6383 20.7993 10.6383 20.4488 10.8929L19.0751 11.891C18.2913 12.4604 17.2369 11.6943 17.5362 10.7729L18.0609 9.15805C18.1948 8.74602 18.0481 8.29465 17.6976 8.04001L16.3239 7.04195C15.5402 6.47255 15.943 5.23293 16.9117 5.23293H18.6097C19.043 5.23293 19.4269 4.95397 19.5608 4.54195L20.0855 2.92705Z" fill="#FCC44E"/>
<path d="M33.5489 2.92705C33.8482 2.00574 35.1516 2.00574 35.451 2.92705L35.9757 4.54195C36.1096 4.95397 36.4935 5.23293 36.9268 5.23293H38.6248C39.5935 5.23293 39.9963 6.47255 39.2125 7.04195L37.8388 8.04001C37.4883 8.29465 37.3417 8.74602 37.4756 9.15804L38.0003 10.7729C38.2996 11.6943 37.2451 12.4604 36.4614 11.891L35.0877 10.8929C34.7372 10.6383 34.2626 10.6383 33.9121 10.8929L32.5384 11.891C31.7547 12.4604 30.7002 11.6943 30.9996 10.7729L31.5243 9.15805C31.6582 8.74602 31.5115 8.29465 31.161 8.04001L29.7873 7.04195C29.0036 6.47255 29.4064 5.23293 30.3751 5.23293H32.0731C32.5063 5.23293 32.8903 4.95397 33.0242 4.54195L33.5489 2.92705Z" fill="#FCC44E"/>
<path d="M47.0123 2.92705C47.3116 2.00574 48.615 2.00574 48.9144 2.92705L49.4391 4.54195C49.573 4.95397 49.9569 5.23293 50.3901 5.23293H52.0881C53.0569 5.23293 53.4596 6.47255 52.6759 7.04195L51.3022 8.04001C50.9517 8.29465 50.8051 8.74602 50.9389 9.15804L51.4636 10.7729C51.763 11.6943 50.7085 12.4604 49.9248 11.891L48.5511 10.8929C48.2006 10.6383 47.726 10.6383 47.3755 10.8929L46.0018 11.891C45.2181 12.4604 44.1636 11.6943 44.463 10.7729L44.9877 9.15805C45.1216 8.74602 44.9749 8.29465 44.6244 8.04001L43.2507 7.04195C42.467 6.47255 42.8698 5.23293 43.8385 5.23293H45.5365C45.9697 5.23293 46.3537 4.95397 46.4875 4.54195L47.0123 2.92705Z" fill="#FCC44E"/>
<path d="M60.4756 2.92705C60.775 2.00574 62.0784 2.00574 62.3777 2.92705L62.9025 4.54195C63.0363 4.95397 63.4203 5.23293 63.8535 5.23293H65.5515C66.5202 5.23293 66.923 6.47255 66.1393 7.04195L64.7656 8.04001C64.4151 8.29465 64.2684 8.74602 64.4023 9.15804L64.927 10.7729C65.2264 11.6943 64.1719 12.4604 63.3882 11.891L62.0145 10.8929C61.664 10.6383 61.1894 10.6383 60.8389 10.8929L59.4652 11.891C58.6815 12.4604 57.627 11.6943 57.9263 10.7729L58.4511 9.15805C58.5849 8.74602 58.4383 8.29465 58.0878 8.04001L56.7141 7.04195C55.9304 6.47255 56.3331 5.23293 57.3019 5.23293H58.9999C59.4331 5.23293 59.817 4.95397 59.9509 4.54195L60.4756 2.92705Z" fill="#FCC44E"/>
</svg>
